<?xml version="1.0" encoding="utf-8"?>
<!-- Generator: Adobe Illustrator 23.0.3, SVG Export Plug-In . SVG Version: 6.00 Build 0)  -->
<!DOCTYPE svg PUBLIC "-//W3C//DTD SVG 1.1//EN" "http://www.w3.org/Graphics/SVG/1.1/DTD/svg11.dtd" [
	<!ENTITY ns_extend "http://ns.adobe.com/Extensibility/1.0/">
	<!ENTITY ns_ai "http://ns.adobe.com/AdobeIllustrator/10.0/">
	<!ENTITY ns_graphs "http://ns.adobe.com/Graphs/1.0/">
	<!ENTITY ns_vars "http://ns.adobe.com/Variables/1.0/">
	<!ENTITY ns_imrep "http://ns.adobe.com/ImageReplacement/1.0/">
	<!ENTITY ns_sfw "http://ns.adobe.com/SaveForWeb/1.0/">
	<!ENTITY ns_custom "http://ns.adobe.com/GenericCustomNamespace/1.0/">
	<!ENTITY ns_adobe_xpath "http://ns.adobe.com/XPath/1.0/">
]>
<svg version="1.1" id="Capa_1" xmlns:x="&ns_extend;" xmlns:i="&ns_ai;" xmlns:graph="&ns_graphs;"
	 xmlns="http://www.w3.org/2000/svg" xmlns:xlink="http://www.w3.org/1999/xlink" x="0px" y="0px" viewBox="0 0 371.2 371.2"
	 style="enable-background:new 0 0 371.2 371.2;" xml:space="preserve">
<style type="text/css">
	.st0{fill:#5CA0E9;}
</style>
<metadata>
	<sfw  xmlns="&ns_sfw;">
		<slices></slices>
		<sliceSourceBounds  bottomLeftOrigin="true" height="197.6" width="365" x="3.9" y="71.2"></sliceSourceBounds>
	</sfw>
</metadata>
<g>
	<g>
		<path class="st0" d="M362.6,193.3c-0.7-0.9-18.4-23.1-48.7-45.4c-40.5-29.8-84.6-45.5-127.5-45.5s-87,15.7-127.5,45.5
			c-30.3,22.3-48,44.5-48.7,45.4l-6.3,7.9l6.3,7.9c0.7,0.9,18.4,23.1,48.7,45.4c40.5,29.8,84.6,45.5,127.5,45.5s87-15.7,127.5-45.5
			c30.3-22.3,48-44.5,48.7-45.4l6.3-7.9L362.6,193.3z M186.4,270.5c-38.2,0-69.2-31.1-69.2-69.2c0-6,0.8-11.8,2.2-17.3l-15.8-2.7
			c-1.5,6.4-2.4,13.1-2.4,20c0,24.7,10.5,46.9,27.3,62.5c-21.6-8-40-19.2-53.9-29.3c-17.2-12.6-30.1-25.3-37.4-33.1
			c7.3-7.9,20.2-20.6,37.4-33.1c13.9-10.1,32.3-21.3,53.9-29.3l10.6,12c12.4-11.6,29-18.7,47.3-18.7c38.2,0,69.2,31.1,69.2,69.2
			S224.6,270.5,186.4,270.5z M298.2,234.4c-13.9,10.1-32.3,21.3-53.9,29.3c16.8-15.6,27.3-37.8,27.3-62.5s-10.5-46.9-27.3-62.5
			c21.6,8,40,19.2,53.9,29.3c17.2,12.6,30.1,25.3,37.4,33.1C328.2,209.1,315.4,221.8,298.2,234.4z"/>
		<path class="st0" d="M142.3,187.8c-1.3,4.3-2,8.8-2,13.5c0,25.4,20.6,46.1,46.1,46.1c25.4,0,46.1-20.6,46.1-46.1
			s-20.6-46.1-46.1-46.1c-12.4,0-23.6,4.9-31.9,12.9l22.7,25.6L142.3,187.8z"/>
	</g>
</g>
</svg>
