<?xml version="1.0" encoding="utf-8"?>
<!-- Generator: Adobe Illustrator 23.0.3, SVG Export Plug-In . SVG Version: 6.00 Build 0)  -->
<!DOCTYPE svg PUBLIC "-//W3C//DTD SVG 1.1//EN" "http://www.w3.org/Graphics/SVG/1.1/DTD/svg11.dtd" [
	<!ENTITY ns_extend "http://ns.adobe.com/Extensibility/1.0/">
	<!ENTITY ns_ai "http://ns.adobe.com/AdobeIllustrator/10.0/">
	<!ENTITY ns_graphs "http://ns.adobe.com/Graphs/1.0/">
	<!ENTITY ns_vars "http://ns.adobe.com/Variables/1.0/">
	<!ENTITY ns_imrep "http://ns.adobe.com/ImageReplacement/1.0/">
	<!ENTITY ns_sfw "http://ns.adobe.com/SaveForWeb/1.0/">
	<!ENTITY ns_custom "http://ns.adobe.com/GenericCustomNamespace/1.0/">
	<!ENTITY ns_adobe_xpath "http://ns.adobe.com/XPath/1.0/">
]>
<svg version="1.1" id="Capa_1" xmlns:x="&ns_extend;" xmlns:i="&ns_ai;" xmlns:graph="&ns_graphs;"
	 xmlns="http://www.w3.org/2000/svg" xmlns:xlink="http://www.w3.org/1999/xlink" x="0px" y="0px" viewBox="0 0 456.8 456.8"
	 style="enable-background:new 0 0 456.8 456.8;" xml:space="preserve">
<style type="text/css">
	.st0{fill:#5CA0E9;}
</style>
<metadata>
	<sfw  xmlns="&ns_sfw;">
		<slices></slices>
		<sliceSourceBounds  bottomLeftOrigin="true" height="434.2" width="457.3" x="-1" y="12.1"></sliceSourceBounds>
	</sfw>
</metadata>
<g>
	<circle class="st0" cx="332.6" cy="68.3" r="47.4"/>
	<path class="st0" d="M453.4,259.3l-73-125.2c-3.5-6-10.6-10.2-15.9-10.2c-1.3,0-60.8,0-62.1,0c-5.3,0-12.4,4.2-15.9,10.2l-55,94.4
		l-61-104.7c-3.9-6.7-10.9-10.4-18.1-10.4c-0.1,0-0.3,0-0.4,0H93.3c-0.1,0-0.3,0-0.4,0c-7.2,0-14.2,3.7-18.1,10.4L1.8,249
		c-5.8,10-2.4,22.7,7.5,28.5c3.3,1.9,6.9,2.8,10.5,2.8c7.2,0,14.2-3.7,18.1-10.4l32.2-55.2v23.6L55.7,342.2
		c-1.2,8.7,5.6,16.5,14.4,16.5l0,0v63.5c0,11.9,9.3,22.1,21.2,22.5c12.5,0.4,22.8-9.6,22.8-22v-64.1h17.4v63.5
		c0,11.9,9.3,22.1,21.2,22.5c12.5,0.4,22.8-9.6,22.8-22v-64.1l0,0c8.8,0,15.6-7.8,14.4-16.5l-14.4-103.8v-22.9l31.7,54.5
		c1.1,1.9,8.6,14.9,13.7,17.9c3.3,1.9,6.9,2.8,10.5,2.8c7.2,0,14.2-3.7,18.1-10.4l31.3-53.7l-0.3,184.8c0,12.2,9.9,22,22,22
		c0.1,0,0.1,0,0.2,0s0.1,0,0.2,0c12.2,0,22-9.9,22-22L324.6,300c0-4.6,3.5-8.7,8.1-9c5.1-0.3,9.3,3.7,9.3,8.7V411
		c0,11.9,9.3,22.1,21.2,22.5c12.5,0.4,22.8-9.6,22.8-22V226.7l31.3,53.7c3.9,6.7,10.9,10.4,18.1,10.4c3.6,0,7.2-0.9,10.5-2.8
		C455.8,282.1,459.2,269.3,453.4,259.3z"/>
	<path class="st0" d="M48.5,104.3l11.7-1c6.7-0.6,11.5-6.9,10.2-13.6c-2-10.2-2.7-24.3,5.7-33c0,0.4,0,0.7,0,1.1
		c0,26.2,21.2,47.4,47.4,47.4s47.4-21.2,47.4-47.4c0-0.4,0-0.7,0-1.1c8.4,8.7,7.7,22.8,5.7,33c-1.3,6.6,3.4,13,10.2,13.6l11.7,1
		c6.2,0.6,11.7-4,12.4-10.2c1.6-15,1.3-37.6-7.2-46.5c-12.6-13.2-28.1-13.4-38.1-11.5c-7.9-15.2-23.8-25.6-42.1-25.6
		S89.3,20.9,81.4,36.1c-10-1.8-25.6-1.7-38.1,11.5c-8.5,9-8.8,31.5-7.2,46.5C36.8,100.4,42.3,104.9,48.5,104.3z"/>
</g>
</svg>
