<?xml version="1.0" encoding="utf-8"?>
<!-- Generator: Adobe Illustrator 23.0.3, SVG Export Plug-In . SVG Version: 6.00 Build 0)  -->
<!DOCTYPE svg PUBLIC "-//W3C//DTD SVG 1.1//EN" "http://www.w3.org/Graphics/SVG/1.1/DTD/svg11.dtd" [
	<!ENTITY ns_extend "http://ns.adobe.com/Extensibility/1.0/">
	<!ENTITY ns_ai "http://ns.adobe.com/AdobeIllustrator/10.0/">
	<!ENTITY ns_graphs "http://ns.adobe.com/Graphs/1.0/">
	<!ENTITY ns_vars "http://ns.adobe.com/Variables/1.0/">
	<!ENTITY ns_imrep "http://ns.adobe.com/ImageReplacement/1.0/">
	<!ENTITY ns_sfw "http://ns.adobe.com/SaveForWeb/1.0/">
	<!ENTITY ns_custom "http://ns.adobe.com/GenericCustomNamespace/1.0/">
	<!ENTITY ns_adobe_xpath "http://ns.adobe.com/XPath/1.0/">
]>
<svg version="1.1" id="Capa_1" xmlns:x="&ns_extend;" xmlns:i="&ns_ai;" xmlns:graph="&ns_graphs;"
	 xmlns="http://www.w3.org/2000/svg" xmlns:xlink="http://www.w3.org/1999/xlink" x="0px" y="0px" viewBox="0 0 371.2 371.2"
	 style="enable-background:new 0 0 371.2 371.2;" xml:space="preserve">
<style type="text/css">
	.st0{fill:#5CA0E9;}
</style>
<metadata>
	<sfw  xmlns="&ns_sfw;">
		<slices></slices>
		<sliceSourceBounds  bottomLeftOrigin="true" height="353.3" width="333.1" x="36" y="6.2"></sliceSourceBounds>
	</sfw>
</metadata>
<g>
	<g>
		<path class="st0" d="M223.6,321c-2.7,3.8-6.5,6.5-11,7.7l-22.1,6c-1.7,0.5-3.5,0.7-5.3,0.7c-4.1,0-8-1.2-11.3-3.6
			c-4.9-3.4-7.9-8.7-8.4-14.5l-1.9-22.8c-0.5-4.7,0.8-9.4,3.5-13.1l0.8-1.2H89.2c-6.4,0-11.5-5.2-11.5-11.6S82.8,257,89.2,257h95.3
			l21.3-30.4H89.2c-6.4,0-11.5-5.2-11.5-11.6c0-6.4,5.1-11.6,11.5-11.6l132.9-0.3l49.9-71.5V78.8c0-8.7-6.7-15.7-15.4-15.7h-38.2
			v30.2c0,14.3-11.7,25.5-25.9,25.5h-76.8c-14.3,0-25.5-11.3-25.5-25.5V63.1H51.7c-8.7,0-15.7,7-15.7,15.7v270.1
			c0,8.7,7,16.1,15.7,16.1h204.9c8.7,0,15.4-7.4,15.4-16.1v-96.6L223.6,321z M89.2,150h129.9c6.3,0,11.5,5.2,11.5,11.6
			c0,6.4-5.2,11.6-11.5,11.6H89.2c-6.4,0-11.5-5.2-11.5-11.6S82.8,150,89.2,150z"/>
		<path class="st0" d="M116,103.6h76.7c5.8,0,10.5-4.7,10.5-10.5V49c0-5.8-4.7-10.5-10.5-10.5h-11.6c-0.1-14.8-12.1-26.8-27-26.8
			s-26.9,12-27,26.8H116c-5.8,0-10.5,4.7-10.5,10.5v44.1C105.4,98.9,110.2,103.6,116,103.6z M154.1,26.6c6.6,0,12,5.3,12,11.9H142
			C142.2,31.9,147.5,26.6,154.1,26.6z"/>
		<path class="st0" d="M369,82.6c-0.4-2-1.5-3.7-3.1-4.8l-19.2-13.4c-1.3-0.9-2.8-1.3-4.3-1.3c-2.3,0-4.7,1.1-6.1,3.2l-136,195
			l31.4,21.9l136-195C368.9,86.5,369.3,84.5,369,82.6z"/>
		<path class="st0" d="M178.9,293.1l2,22.9c0.1,1.3,0.8,2.5,1.9,3.3c0.8,0.5,1.7,0.8,2.5,0.8c0.4,0,0.8-0.1,1.2-0.2l22.2-6.1
			c1-0.3,1.9-0.9,2.5-1.7l8.3-11.9L188,278.3l-8.3,11.9C179.1,291.1,178.8,292.1,178.9,293.1z"/>
	</g>
</g>
</svg>
